<svg width="35" height="37" viewBox="0 0 35 37" fill="none" xmlns="http://www.w3.org/2000/svg">
<path d="M17.5292 4.7435C12.7021 4.7435 8.77917 8.84888 8.77917 13.9005V18.3111C8.77917 19.242 8.40001 20.6614 7.94792 21.455L6.27084 24.37C5.23542 26.1708 5.95001 28.1701 7.84584 28.8416C14.1313 31.0393 20.9125 31.0393 27.1979 28.8416C28.9625 28.2311 29.7354 26.0487 28.7729 24.37L27.0958 21.455C26.6583 20.6614 26.2792 19.242 26.2792 18.3111V13.9005C26.2792 8.86414 22.3417 4.7435 17.5292 4.7435Z" stroke="#3A325B" stroke-width="1.5" stroke-miterlimit="10" stroke-linecap="round"/>
<path d="M20.2271 5.18609C18.4635 4.66046 16.5948 4.66046 14.8312 5.18609C15.2542 4.05673 16.3042 3.26312 17.5292 3.26312C18.7542 3.26312 19.8042 4.05673 20.2271 5.18609Z" stroke="#3A325B" stroke-width="1.5" stroke-miterlimit="10" stroke-linecap="round" stroke-linejoin="round"/>
<path d="M21.9042 29.391C21.9042 31.9092 19.9354 33.9695 17.5292 33.9695C16.3333 33.9695 15.225 33.4506 14.4375 32.6265C13.6182 31.7677 13.1568 30.6046 13.1542 29.391" stroke="#3A325B" stroke-width="1.5" stroke-miterlimit="10"/>
</svg>
